<mxfile host="app.diagrams.net" agent="Mozilla/5.0 (Windows NT 10.0; Win64; x64) AppleWebKit/537.36 (KHTML, like Gecko) Chrome/134.0.0.0 Safari/537.36" version="26.1.0">
  <diagram name="Page-1" id="YXsk0DtAem8vpPZ7L6C3">
    <mxGraphModel dx="1184" dy="1617" grid="1" gridSize="10" guides="1" tooltips="1" connect="1" arrows="1" fold="1" page="1" pageScale="1" pageWidth="827" pageHeight="1169" math="0" shadow="0">
      <root>
        <mxCell id="0" />
        <mxCell id="1" parent="0" />
        <mxCell id="6efFxmklBLM40_6WHHdi-24" value="" style="rounded=0;whiteSpace=wrap;html=1;fillColor=none;dashed=1;strokeWidth=2;" parent="1" vertex="1">
          <mxGeometry x="30" y="620" width="420" height="180" as="geometry" />
        </mxCell>
        <mxCell id="6efFxmklBLM40_6WHHdi-25" value="" style="rounded=0;whiteSpace=wrap;html=1;fillColor=none;dashed=1;strokeWidth=2;" parent="1" vertex="1">
          <mxGeometry x="460" y="620" width="350" height="180" as="geometry" />
        </mxCell>
        <mxCell id="6efFxmklBLM40_6WHHdi-22" value="" style="rounded=0;whiteSpace=wrap;html=1;fillColor=none;dashed=1;strokeWidth=2;" parent="1" vertex="1">
          <mxGeometry x="30" y="170" width="780" height="440" as="geometry" />
        </mxCell>
        <mxCell id="6efFxmklBLM40_6WHHdi-1" value="UI" style="rounded=0;whiteSpace=wrap;html=1;" parent="1" vertex="1">
          <mxGeometry x="40" y="260" width="740" height="60" as="geometry" />
        </mxCell>
        <mxCell id="6efFxmklBLM40_6WHHdi-3" value="API" style="rounded=0;whiteSpace=wrap;html=1;" parent="1" vertex="1">
          <mxGeometry x="40" y="380" width="740" height="30" as="geometry" />
        </mxCell>
        <mxCell id="6efFxmklBLM40_6WHHdi-4" value="" style="rounded=0;whiteSpace=wrap;html=1;fillColor=light-dark(#FFFFFF,#EDEDED);strokeColor=default;" parent="1" vertex="1">
          <mxGeometry x="40" y="450" width="740" height="140" as="geometry" />
        </mxCell>
        <mxCell id="6efFxmklBLM40_6WHHdi-8" style="edgeStyle=orthogonalEdgeStyle;rounded=0;orthogonalLoop=1;jettySize=auto;html=1;exitX=1;exitY=0.5;exitDx=0;exitDy=0;" parent="1" source="6efFxmklBLM40_6WHHdi-5" target="6efFxmklBLM40_6WHHdi-6" edge="1">
          <mxGeometry relative="1" as="geometry" />
        </mxCell>
        <mxCell id="6efFxmklBLM40_6WHHdi-5" value="Preprocess user input" style="rounded=0;whiteSpace=wrap;html=1;" parent="1" vertex="1">
          <mxGeometry x="60" y="500" width="140" height="60" as="geometry" />
        </mxCell>
        <mxCell id="6efFxmklBLM40_6WHHdi-10" style="edgeStyle=orthogonalEdgeStyle;rounded=0;orthogonalLoop=1;jettySize=auto;html=1;exitX=1;exitY=0.5;exitDx=0;exitDy=0;" parent="1" source="6efFxmklBLM40_6WHHdi-6" target="6efFxmklBLM40_6WHHdi-9" edge="1">
          <mxGeometry relative="1" as="geometry" />
        </mxCell>
        <mxCell id="6efFxmklBLM40_6WHHdi-6" value="Talk with LLM" style="rounded=0;whiteSpace=wrap;html=1;" parent="1" vertex="1">
          <mxGeometry x="240" y="500" width="150" height="60" as="geometry" />
        </mxCell>
        <mxCell id="6efFxmklBLM40_6WHHdi-12" style="edgeStyle=orthogonalEdgeStyle;rounded=0;orthogonalLoop=1;jettySize=auto;html=1;exitX=1;exitY=0.5;exitDx=0;exitDy=0;" parent="1" source="6efFxmklBLM40_6WHHdi-9" target="6efFxmklBLM40_6WHHdi-11" edge="1">
          <mxGeometry relative="1" as="geometry" />
        </mxCell>
        <mxCell id="6efFxmklBLM40_6WHHdi-14" style="edgeStyle=orthogonalEdgeStyle;rounded=0;orthogonalLoop=1;jettySize=auto;html=1;exitX=0.5;exitY=1;exitDx=0;exitDy=0;entryX=0.5;entryY=0;entryDx=0;entryDy=0;startArrow=classic;startFill=1;" parent="1" source="6efFxmklBLM40_6WHHdi-6" target="6efFxmklBLM40_6WHHdi-13" edge="1">
          <mxGeometry relative="1" as="geometry" />
        </mxCell>
        <mxCell id="6efFxmklBLM40_6WHHdi-20" style="edgeStyle=orthogonalEdgeStyle;rounded=0;orthogonalLoop=1;jettySize=auto;html=1;exitX=0.5;exitY=1;exitDx=0;exitDy=0;startArrow=classic;startFill=1;" parent="1" source="6efFxmklBLM40_6WHHdi-9" target="6efFxmklBLM40_6WHHdi-19" edge="1">
          <mxGeometry relative="1" as="geometry" />
        </mxCell>
        <mxCell id="6efFxmklBLM40_6WHHdi-9" value="Query from ElasticSearch" style="rounded=0;whiteSpace=wrap;html=1;" parent="1" vertex="1">
          <mxGeometry x="430" y="500" width="150" height="60" as="geometry" />
        </mxCell>
        <mxCell id="6efFxmklBLM40_6WHHdi-11" value="Return articles to user" style="rounded=0;whiteSpace=wrap;html=1;" parent="1" vertex="1">
          <mxGeometry x="610" y="500" width="150" height="60" as="geometry" />
        </mxCell>
        <mxCell id="6efFxmklBLM40_6WHHdi-17" style="edgeStyle=orthogonalEdgeStyle;rounded=0;orthogonalLoop=1;jettySize=auto;html=1;exitX=0;exitY=0.5;exitDx=0;exitDy=0;startArrow=classic;startFill=1;" parent="1" source="6efFxmklBLM40_6WHHdi-13" target="6efFxmklBLM40_6WHHdi-15" edge="1">
          <mxGeometry relative="1" as="geometry" />
        </mxCell>
        <mxCell id="6efFxmklBLM40_6WHHdi-18" style="edgeStyle=orthogonalEdgeStyle;rounded=0;orthogonalLoop=1;jettySize=auto;html=1;exitX=1;exitY=0.5;exitDx=0;exitDy=0;entryX=0.5;entryY=0;entryDx=0;entryDy=0;startArrow=classic;startFill=1;" parent="1" source="6efFxmklBLM40_6WHHdi-13" target="6efFxmklBLM40_6WHHdi-16" edge="1">
          <mxGeometry relative="1" as="geometry" />
        </mxCell>
        <mxCell id="6efFxmklBLM40_6WHHdi-13" value="" style="rhombus;whiteSpace=wrap;html=1;" parent="1" vertex="1">
          <mxGeometry x="300" y="649" width="30" height="30" as="geometry" />
        </mxCell>
        <mxCell id="6efFxmklBLM40_6WHHdi-15" value="Groq / OpenAI API" style="rounded=0;whiteSpace=wrap;html=1;" parent="1" vertex="1">
          <mxGeometry x="220" y="729" width="80" height="60" as="geometry" />
        </mxCell>
        <mxCell id="6efFxmklBLM40_6WHHdi-16" value="Custom LLM" style="rounded=0;whiteSpace=wrap;html=1;" parent="1" vertex="1">
          <mxGeometry x="330" y="729" width="80" height="60" as="geometry" />
        </mxCell>
        <mxCell id="6efFxmklBLM40_6WHHdi-19" value="" style="strokeWidth=2;html=1;shape=mxgraph.flowchart.database;whiteSpace=wrap;" parent="1" vertex="1">
          <mxGeometry x="475" y="700" width="60" height="60" as="geometry" />
        </mxCell>
        <mxCell id="6efFxmklBLM40_6WHHdi-21" value="LangChain" style="text;html=1;align=center;verticalAlign=middle;whiteSpace=wrap;rounded=0;" parent="1" vertex="1">
          <mxGeometry x="384" y="460" width="60" height="30" as="geometry" />
        </mxCell>
        <mxCell id="6efFxmklBLM40_6WHHdi-23" value="&lt;font style=&quot;font-size: 15px;&quot;&gt;Application&lt;/font&gt;" style="text;html=1;align=center;verticalAlign=middle;whiteSpace=wrap;rounded=0;" parent="1" vertex="1">
          <mxGeometry x="345" y="180" width="130" height="30" as="geometry" />
        </mxCell>
        <mxCell id="6efFxmklBLM40_6WHHdi-26" value="&lt;font style=&quot;font-size: 15px;&quot;&gt;LLM&lt;/font&gt;" style="text;html=1;align=center;verticalAlign=middle;whiteSpace=wrap;rounded=0;" parent="1" vertex="1">
          <mxGeometry x="40" y="640" width="60" height="30" as="geometry" />
        </mxCell>
        <mxCell id="6efFxmklBLM40_6WHHdi-27" value="&lt;font style=&quot;font-size: 15px;&quot;&gt;DB (ElasticSearch)&lt;/font&gt;" style="text;html=1;align=center;verticalAlign=middle;whiteSpace=wrap;rounded=0;" parent="1" vertex="1">
          <mxGeometry x="630" y="640" width="140" height="30" as="geometry" />
        </mxCell>
        <mxCell id="6efFxmklBLM40_6WHHdi-29" value="" style="endArrow=classic;html=1;rounded=0;entryX=0.5;entryY=0;entryDx=0;entryDy=0;" parent="1" target="6efFxmklBLM40_6WHHdi-5" edge="1">
          <mxGeometry width="50" height="50" relative="1" as="geometry">
            <mxPoint x="130" y="320" as="sourcePoint" />
            <mxPoint x="180" y="880" as="targetPoint" />
          </mxGeometry>
        </mxCell>
        <mxCell id="6efFxmklBLM40_6WHHdi-30" style="edgeStyle=orthogonalEdgeStyle;rounded=0;orthogonalLoop=1;jettySize=auto;html=1;exitX=0.5;exitY=0;exitDx=0;exitDy=0;entryX=0.872;entryY=1.033;entryDx=0;entryDy=0;entryPerimeter=0;" parent="1" source="6efFxmklBLM40_6WHHdi-11" target="6efFxmklBLM40_6WHHdi-1" edge="1">
          <mxGeometry relative="1" as="geometry" />
        </mxCell>
        <mxCell id="6efFxmklBLM40_6WHHdi-32" value="" style="rounded=0;whiteSpace=wrap;html=1;fillColor=none;dashed=1;strokeWidth=2;" parent="1" vertex="1">
          <mxGeometry x="34" y="870" width="776" height="160" as="geometry" />
        </mxCell>
        <mxCell id="6efFxmklBLM40_6WHHdi-33" value="&lt;font style=&quot;font-size: 15px;&quot;&gt;Data scraping / preprocessing&lt;/font&gt;" style="text;html=1;align=center;verticalAlign=middle;whiteSpace=wrap;rounded=0;" parent="1" vertex="1">
          <mxGeometry x="40" y="990" width="220" height="30" as="geometry" />
        </mxCell>
        <mxCell id="6efFxmklBLM40_6WHHdi-35" style="edgeStyle=orthogonalEdgeStyle;rounded=0;orthogonalLoop=1;jettySize=auto;html=1;entryX=1;entryY=0.5;entryDx=0;entryDy=0;entryPerimeter=0;dashed=1;" parent="1" source="6efFxmklBLM40_6WHHdi-44" target="6efFxmklBLM40_6WHHdi-19" edge="1">
          <mxGeometry relative="1" as="geometry">
            <mxPoint x="510" y="820" as="targetPoint" />
          </mxGeometry>
        </mxCell>
        <mxCell id="6efFxmklBLM40_6WHHdi-45" style="edgeStyle=orthogonalEdgeStyle;rounded=0;orthogonalLoop=1;jettySize=auto;html=1;exitX=0;exitY=0.5;exitDx=0;exitDy=0;entryX=1;entryY=0.5;entryDx=0;entryDy=0;" parent="1" source="6efFxmklBLM40_6WHHdi-34" target="6efFxmklBLM40_6WHHdi-44" edge="1">
          <mxGeometry relative="1" as="geometry" />
        </mxCell>
        <mxCell id="6efFxmklBLM40_6WHHdi-34" value="Wiki scraper" style="rounded=0;whiteSpace=wrap;html=1;" parent="1" vertex="1">
          <mxGeometry x="650" y="900" width="120" height="60" as="geometry" />
        </mxCell>
        <mxCell id="6efFxmklBLM40_6WHHdi-39" style="edgeStyle=orthogonalEdgeStyle;rounded=0;orthogonalLoop=1;jettySize=auto;html=1;exitX=1;exitY=0.5;exitDx=0;exitDy=0;" parent="1" source="6efFxmklBLM40_6WHHdi-36" target="6efFxmklBLM40_6WHHdi-38" edge="1">
          <mxGeometry relative="1" as="geometry" />
        </mxCell>
        <mxCell id="6efFxmklBLM40_6WHHdi-36" value="MS Marco Dataset (for human query examples)" style="rounded=0;whiteSpace=wrap;html=1;" parent="1" vertex="1">
          <mxGeometry x="60" y="890" width="80" height="80" as="geometry" />
        </mxCell>
        <mxCell id="6efFxmklBLM40_6WHHdi-37" value="&amp;lt;&amp;lt; upload &amp;gt;&amp;gt;&amp;nbsp;" style="text;html=1;align=center;verticalAlign=middle;whiteSpace=wrap;rounded=0;" parent="1" vertex="1">
          <mxGeometry x="560" y="820" width="100" height="30" as="geometry" />
        </mxCell>
        <mxCell id="6efFxmklBLM40_6WHHdi-40" style="edgeStyle=orthogonalEdgeStyle;rounded=0;orthogonalLoop=1;jettySize=auto;html=1;exitX=0.5;exitY=0;exitDx=0;exitDy=0;entryX=0.5;entryY=1;entryDx=0;entryDy=0;dashed=1;startArrow=classic;startFill=1;" parent="1" source="6efFxmklBLM40_6WHHdi-38" target="6efFxmklBLM40_6WHHdi-15" edge="1">
          <mxGeometry relative="1" as="geometry" />
        </mxCell>
        <mxCell id="6efFxmklBLM40_6WHHdi-42" style="edgeStyle=orthogonalEdgeStyle;rounded=0;orthogonalLoop=1;jettySize=auto;html=1;exitX=1;exitY=0.5;exitDx=0;exitDy=0;" parent="1" source="6efFxmklBLM40_6WHHdi-38" target="6efFxmklBLM40_6WHHdi-41" edge="1">
          <mxGeometry relative="1" as="geometry" />
        </mxCell>
        <mxCell id="6efFxmklBLM40_6WHHdi-38" value="Generate optimized query examples via LLM&amp;nbsp;" style="rounded=0;whiteSpace=wrap;html=1;" parent="1" vertex="1">
          <mxGeometry x="220" y="890" width="80" height="80" as="geometry" />
        </mxCell>
        <mxCell id="6efFxmklBLM40_6WHHdi-43" style="edgeStyle=orthogonalEdgeStyle;rounded=0;orthogonalLoop=1;jettySize=auto;html=1;exitX=0.5;exitY=0;exitDx=0;exitDy=0;dashed=1;" parent="1" source="6efFxmklBLM40_6WHHdi-41" target="6efFxmklBLM40_6WHHdi-16" edge="1">
          <mxGeometry relative="1" as="geometry" />
        </mxCell>
        <mxCell id="6efFxmklBLM40_6WHHdi-41" value="Fine tune a language model (such as t5-small)" style="rounded=0;whiteSpace=wrap;html=1;" parent="1" vertex="1">
          <mxGeometry x="330" y="890" width="80" height="80" as="geometry" />
        </mxCell>
        <mxCell id="6efFxmklBLM40_6WHHdi-44" value="Scrape lots of wikipedia artifcles" style="rounded=0;whiteSpace=wrap;html=1;" parent="1" vertex="1">
          <mxGeometry x="500" y="900" width="120" height="60" as="geometry" />
        </mxCell>
        <mxCell id="8N3fOwnKWGibA3i21ugf-1" value="&lt;font style=&quot;font-size: 14px;&quot;&gt;Frontend (React)&lt;/font&gt;" style="rounded=0;whiteSpace=wrap;html=1;" vertex="1" parent="1">
          <mxGeometry x="75" y="1270" width="480" height="70" as="geometry" />
        </mxCell>
        <mxCell id="8N3fOwnKWGibA3i21ugf-2" value="" style="shape=image;verticalLabelPosition=bottom;labelBackgroundColor=default;verticalAlign=top;aspect=fixed;imageAspect=0;image=data:image/png,iVBORw0KGgoAAAANSUhEUgAAAMwAAADACAMAAAB/Pny7AAAAP1BMVEX///9h2vta2ftT2Pv1/P/6/v9J1vvq+f5n2/vf9v6F4fzQ8v6Z5fyu6v3U8/7a9f627P3E7/173/yP4/yh5/ziUa1vAAANOUlEQVR4nOVdiZakrA4uw+a+oO//rFetFoKggE39XcPNOXNmpluBD0LIiq/XL4g2iyzeVM5dT3/TliYxtUerxTyKNI16iPY15wSOboFwLkfxO0CMNjPhhByNFoTwYhQs0ZCviA6SKyAIkJye4xH9ApycGy04dJ9dHrHYUN54eNENj+BUU+1A8oYjpw8uziAvut1ZA5YmGk41OlZaTxF0iTakTU153e8Op1yaqAbFLZQNDVk+tDY+LG84VXB7dKqJv8X2I1gG6e15m0rZBbbXz0VAgwVfPoBFzHi/AF/l8/bHmluAug9ojnb2OsO7RW4KBJiSY2Ej6oGTthEbDeNsS1Uo/YtTyfOybPK9a6p3qyXaSlAml9AVap0gGcNYtXB+hiM9O6c7T8B2UjG919lQ6jZhToyFtqp7KK2R9uUJDtzzRnnCQhxCq9NNlnEy0kuVahqkS/RXtck1wNtL5uhNcQxQji75O+npS7s0TC3MJQdXtbkLuBycz9GOm1CkE8rap+JFkCEiJZiEGgC5XvLGhLOymmOUplAsiFwuV1DMR3OQVDyPBxiob56io3EUAbeUEdYbChEpZvfyvakpVa8pBZo6E/i9mKoWY3HOG4dNxuFC5HjbGm2Pp8uEZw0NWpj9ycmc+hrPvHlQAnhVn+lYGhKqVgTQdIDh/p1YtXiDE6n3GGvxshE5eTVieshIMqfjM71pAzRyOmEVBxSHMEN6kzlEI12OVi5E4xM6RkHaIIV8wIciFD9oMP8ZSsQNaT5LtmkYj2xSzJjVdm2AYRaD4IYO8UjuRUUEDcec8lDOZR0+5fn4Epj1CATvAAVmSWVyKoU5Qn+d8ErwpUAEMrzr9ngnmQRYyDGKiOlp8AGKt0uUptXB0XW4BXtPh1pB2pi1dlumUEQdGdPxWplKnB2ORtJFeReq2fblQORZPiiNJpWuqZjlQr+9ItFaVlusaSKUbE4FRilmscKentBgfSCwhUMB4qkMNAUmukHaGWp0Hc347HNg4pdaGGAemCUKTCoV4BdgZIHpgSb/RWBOvmkoo1v4HjCWbHZ4djz0OTCRm3BxnDOxJ/nnBEDc7Iyu+AeJM+fZcc78MZhGq5qAzGUepRPR5GDUOGI0gKFEWEZkZfIY5Sy9BvBENxN6+JutKZBci1lgpZsVqcDU8RaSduCttM1BhTgtYpYP11k6rfnwzcIcCgarMfCeggEQ2wWLNGUCJLNnOmWcBUoiNikoBTlmoNGWNNShs6KMs2Q+zSnWbK6QINPW6YRCLqGRyvRmc6xDg2JBpl9hIzIIAr0tD7arb3DKoRnGuEhyEcM9q82bUIszvavpFec3WxA7mS8geU2CdrTymyVTzZDdHHLQ9BoLORsw6CQN8o70ygWQLhJYH+Ks9oOhaF1sBxmKafCAmRnVMZMudtaFO84pOvmlY7QdUgz8s60c53WqY2blDiUBvOJs8RyNOoAUchA+89jdEw2Oz2ivrPL+nwgLgdnDaDo+kzDY9DrYzNdopb2YsOw5HKJaaRiG7a89/YKqTe0XuMopCukksxb3Hp+3oV7Wc72R1LT/v541GJ+fUoVnkqY1KAnA3SCqaezWsRu+GLgi/MwGcOmmpnLuifRu8436CwlAq6mbZblScR5nGP28tTYg62XsT8HpwyFCgtX1EKK2DiCmTq7jsCb7If00A2U79odYqLRmlhCLVh3JvONoS06Iy1+RANWWcFbv2av6hE25/19MeY1glK6UucS0AYJ2Vlsmae7Mq1HL8GkcCJE6soJtuSCi/TnSEkxQuMRYXBM1TZZDK/p1j8T0DSvfb7QOvzSpOH5ForCVdXchvCORNONc8pieyTy37bJ0K43jZNI4juuPl6Vt59mfWIzmhxC5TMOv1oc23Vx6pNY615yghSPtqrL42IJRIXCGUwlbsYQnX3vF87x4o1qRwA2STYiSsm67sRmRYh/KDgwp2PO6aMssPZDWwdSLP33IQc3a9qXk2jKQQbZjM1RiWwWtCUeEPZDpUw7bYlVVvyoUJefXzADr7MUWb9BOlpdTtM7fysCrCqyYSfv7eUzufq8YTccG6MqAK3ODlV6suy/KOeLcEW1xx791ddoTQg0qMqFaG2qmT54xSsfrAaySMDRsTef7c9HOBpyfMNlOWnDw81YY7k+2EKN7heIqAsFnnuVcUFZHvKuu14rFyVdCUdjNfSZxHxzaOaqMtrOvnmijWjTNTW0Hx0csXzqR/RRNEqr38jUssnQwPnDZX+9QOtmSGKCU856grEzik+ne6WcfeOrQ/Butagtq15irrnbgAdJeTB8dZotNoZDtIdhV1rmpxOrkpUfObZ0kb0TUmJINyhwcVjzWbial8xwV3XlZgKwnCUKu5AugbjVvRyf5vEmH17EVSzXroh82S20NktdWt6w5l0ytT53qSRGf6W5VVngBz8rDdPgDi8nG5DL99Krznks8ilOLtDs9AmSeLHZUu1WvgU7tD45EnUkHOtCekxaXqaH21lhPD5zKv2CrXHJ0qxPAj0XQLP/YtBV606nAlE5xd/i2WDWacC6a+2Gw2V2vrJ5TQTl09rscy8d7VT/cmCPailVCX62WO5TBxIj3jtGXKfJupLc66n8KT1AhGlxEg8Uqg35obtzt6qopxapqMOSCdxlFtby4LePIJ3cBJZ0A/j7qdfjiIiW22YTpu/l1xgi4NQStcP5kpKm4412KO62P3vXPhJEc7omcKj4rdumAzm/X0wOcDy5il9RsdK5hUjoFv43+H5OgsRhp7b48CJVsvfOyngfu2P1scamK3KXy6Iq13d2nDpnCIyF/4iPqv2jvQ+GrjkEa09aNFkNnUb89WrstLHCl9OjzeJP6KiDlT9edtjH8/FtrDUVQrSiS/z1S0h2FaFdYCqeEEmhpqO6k8CuuQ61mckKxkiB7R4lRaJnqk9grKhwJ2hqN3RNK6eiVUhEULxMLef8Dx4YCy230SmonBrFepY4kQEzWjOtKIdLWqt0gLZy9JaCuhAwMy79QqiJKUrKVsuneJ+aokGhcT4WN6d37gM7v0Awo6jATrHeFr9oe7O1ZW69ElR6gEtWIhGNrnHY8nzmzM81Jt2RuZWfaxpgUSMOLCOacHQ2OtDYa4Jm2l2Y+zVJcuFzZDNgA8hI7+Ygd52XjDxk4ohQWA8eo4UjiRJmIk9GpY7exO7GsXrN1jdZ4LS5dTiv0MQuzToIxKkdmAAuJDzpEADOXJiqPQejIXhQYY3u7xKcICUy5Yq6Lp+EbUvcVXNkMVyTQmBwTHLJl3NFwisHEXdGifQZxWF5Un7XO+fMK5v1Nx5Zg+KqJOH+i2sgkEsyrRwkyjl8HgnGMVpcOecvbcwbzjWym34xks6wEQFaiOatD83PqTPvfqzNZKZp5mQBZGWdZmc15OTSycjXl5QT8nXu2+jL3bFaO87xCGnkFm/7LMCDEhwFv8uZdYcC8ArT/ZugcZz6av7STGuZ/Nqkhr3STvBKBXttOLU5P/bMpWq/tJt58kud25NmkNe5w8kk43eF8XyowuFPGvanAbzjZJGlvJNrrQoDiQ+nzxnZLlz6/UUaFDTvtJSeXDX6u5KROXnKyU0bFQBt9XZnW9LsLW76pgK5KUOCYT2njm35TdOqsnY9rImHR6UZ/UA4MnyoH/pNC7eVDhdoq4vLfldCzj5XQ/83lBuIzlxtcXTzzc+2E/KeuncjqQpAHV7XA117V8stLdKpvukQnq+uNsrp46uGVYOVXXgn28LI28pWXtanRhUTmkSfiK6/Ry+mCw6yunszqUtCsrmvN6iJd9cmWHK44zury6ayuBVejyOHCdhWRy+Eq/Wdg3Gn0PE7GfvCTLVl9fiKrD4P8X3+yxfqYTjyvfBOYL/7M0V98gOpx3xf0UDSn+TRYajBqLDl8tC3p5/TiTMb0n9PL6kOHWX2CMvXHQSMKqf7+Kydf/dnWrD6om9WnjvP6CHVWnwfP6sPtSnf1eZurxcjD5+0pfDwZ2T9E3m9rHZh68CHOaxqDloaOxqEPdrEM682FK+a7vaCy2dP5MzfSFUOO8jLVd20sC4CrxORUWUfkcjlO7Uh8YghdE6q9vtICKhNKwS8EEO0MVRpAXuji7FzvlIx05Z/be75VjZks1l7OeG9mTsOqSbvgoEKjGG0ugHT1kcvD0pfn6u37THqr0MJRhItvOkmZ0rBRhdz6+PhmrFqstF2vjtudLR3C5cQ0IDag6Um9MKdKcr5d57rRMM5gVQ+EVK8OsjhZO7Di6Zo9iaMfS8SJkYnfQWSKIeBvstPoIMxtsR2gdtHF0arx05RnzEFuy9Eajww9rPv5vDhO4knFsqLGn7xLSq+KoolO59IwV4txV7akQ7NCiZM7YpSuAhdN4BBzqWiQrijFAQWWJtocrG7hAISZPc9ILBddAy/2zyw9aHKqHdVUO23iOjUCTHRwzOQmVSfxeA5Fv9jyfYUCj8oxooj29VaEgIBwOT5HshOjzUxwoQkhvBjFR5flINosh5OznDt3HXQ8ialVAZA56qs5/wO+yr36qFRgIgAAAABJRU5ErkJggg==;" vertex="1" parent="1">
          <mxGeometry x="509.05999999999995" y="1280" width="31.88" height="30" as="geometry" />
        </mxCell>
        <mxCell id="8N3fOwnKWGibA3i21ugf-3" value="&lt;div&gt;&lt;br&gt;&lt;/div&gt;&lt;div&gt;&lt;div style=&quot;font-size: 14px;&quot;&gt;&lt;br&gt;&lt;/div&gt;&lt;div style=&quot;font-size: 14px;&quot;&gt;&lt;br&gt;&lt;/div&gt;&lt;div style=&quot;font-size: 14px;&quot;&gt;&lt;br&gt;&lt;/div&gt;&lt;div style=&quot;font-size: 14px;&quot;&gt;&lt;br&gt;&lt;/div&gt;&lt;div style=&quot;font-size: 14px;&quot;&gt;&lt;br&gt;&lt;/div&gt;&lt;div style=&quot;font-size: 14px;&quot;&gt;&lt;br&gt;&lt;/div&gt;&lt;div style=&quot;font-size: 14px;&quot;&gt;&lt;br&gt;&lt;/div&gt;&lt;span style=&quot;font-size: 14px;&quot;&gt;Backend (python)&lt;/span&gt;&lt;/div&gt;&lt;div&gt;&lt;span style=&quot;font-size: 14px;&quot;&gt;&lt;br&gt;&lt;/span&gt;&lt;/div&gt;&lt;div&gt;&lt;span style=&quot;font-size: 14px;&quot;&gt;&lt;br&gt;&lt;/span&gt;&lt;/div&gt;&lt;div&gt;&lt;span style=&quot;font-size: 14px;&quot;&gt;&lt;br&gt;&lt;/span&gt;&lt;/div&gt;&lt;div&gt;&lt;span style=&quot;font-size: 14px;&quot;&gt;&lt;br&gt;&lt;/span&gt;&lt;/div&gt;&lt;div&gt;&lt;span style=&quot;font-size: 14px;&quot;&gt;&lt;br&gt;&lt;/span&gt;&lt;/div&gt;&lt;div&gt;&lt;span style=&quot;font-size: 14px;&quot;&gt;&lt;br&gt;&lt;/span&gt;&lt;/div&gt;&lt;div&gt;&lt;span style=&quot;font-size: 14px;&quot;&gt;&lt;br&gt;&lt;/span&gt;&lt;/div&gt;&lt;div&gt;&lt;span style=&quot;font-size: 14px;&quot;&gt;&lt;br&gt;&lt;/span&gt;&lt;/div&gt;&lt;div&gt;&lt;span style=&quot;font-size: 14px;&quot;&gt;&lt;br&gt;&lt;/span&gt;&lt;/div&gt;&lt;div&gt;&lt;span style=&quot;font-size: 14px;&quot;&gt;&lt;br&gt;&lt;/span&gt;&lt;/div&gt;&lt;div&gt;&lt;span style=&quot;font-size: 14px;&quot;&gt;&lt;br&gt;&lt;/span&gt;&lt;/div&gt;&lt;div&gt;&lt;span style=&quot;font-size: 14px;&quot;&gt;&lt;br&gt;&lt;/span&gt;&lt;/div&gt;&lt;div&gt;&lt;span style=&quot;font-size: 14px;&quot;&gt;&lt;br&gt;&lt;/span&gt;&lt;/div&gt;&lt;div&gt;&lt;span style=&quot;font-size: 14px;&quot;&gt;&lt;br&gt;&lt;/span&gt;&lt;/div&gt;&lt;div&gt;&lt;span style=&quot;font-size: 14px;&quot;&gt;&lt;br&gt;&lt;/span&gt;&lt;/div&gt;&lt;div&gt;&lt;span style=&quot;font-size: 14px;&quot;&gt;&lt;br&gt;&lt;/span&gt;&lt;/div&gt;&lt;div&gt;&lt;span style=&quot;font-size: 14px;&quot;&gt;&lt;br&gt;&lt;/span&gt;&lt;/div&gt;&lt;div&gt;&lt;span style=&quot;font-size: 14px;&quot;&gt;&lt;br&gt;&lt;/span&gt;&lt;/div&gt;" style="rounded=0;whiteSpace=wrap;html=1;" vertex="1" parent="1">
          <mxGeometry x="75" y="1420" width="480" height="220" as="geometry" />
        </mxCell>
        <mxCell id="8N3fOwnKWGibA3i21ugf-5" value="" style="shape=image;verticalLabelPosition=bottom;labelBackgroundColor=default;verticalAlign=top;aspect=fixed;imageAspect=0;image=data:image/png,iVBORw0KGgoAAAANSUhEUgAAAOEAAADhCAMAAAAJbSJIAAAA8FBMVEX///8zbJn/zDv///0xbJsvaJT//v/+zTr/zDz9zTRhiKn712v8////zDj//f/a5er51mP99dUeYY332Gr88sXM2uL+//pqjqsybZg2apoiYpH8zjo2a5QvbZ1iiar/yjlxk6n5zkz///D/ykL/yS7//er89c/4zC/42XWrv8+Fpb2BnLM0Y4bO2uBag6AhXpLt+Pq2zdk7ao3B2OJUeJYjXoWassGGobKPqr5Fcpf04ZD677ny3Gv656VmiKH53n/k7fL101f176/66K724pshYZr91HD/9+f10En222T98c76zFX63Y7y4IT86bz89MDQT1DxAAALaklEQVR4nO2di3bauhKGZeSbiMTFgPGNELDB0LRArk2TndLs9LRpu9u+/9uckUmapsFG7FKDz9G3UlYXYTX6O9JoZjRyEJJIJBKJRCKRSCQSiUQikUgkEolEIpFIJBKJRCKRSCQSiUQikUgkGwLDF9bhz6+gh/coQjr/wLZH+u+AoSO9gu3M4YNIinBRJfLxI9oavzh4Wy5PAHgt/0z7xbjF9VX0YiqEGUhbhy8tT9M0VXUATYOvBxRV1TTPevm6RZPPFhCMXk08FVAUxVGTv4BK5QHHgW+4juJNy69Q4WyIKcy72cHUVR4VpaNaBzNUMH9DKUatQOsogYDAAKZvUEV2saaqjY6sxDwCCh3+/3B2VKyZikGgGgSKKqQQFqTTsQomsXUGI+8s3MtqoeBpFcVqwewuhkgY5ey4A26z41paoHkdhZtzBarTOZ6hgngbGOWhxy1nTU5mdHZ06oHCVdMVvq8dFmSeQgjWOgOjud45xTYMmh5q6uoFGQTOWYtHsbsP2GHSURKT2DwkgzfeCjgc2Fk6E1QIK8JO6AVq0LFmSW7BjVr1RHyq4nitbQ9eCIxeu04n0Mo/DILRsYhAWIyvi2FDegwTLtBe/PTeW03IiOrLQmwXuGo5sKoWnvF+wBMxhYpX3e7YBRlragDOM0A8/Nb5OpydiQl0vPG2By/EhebyDd47gfzdTmoVY6vjCgh0Hfdi24MX4kBzk5zpzQzz/Y0i7koFFR5se/BC7DsLOeqbahLgtALXEcmiuML2tgcvRPk+RHNcq30+Pp94TuCoIjZUA3d/24MXYv+H41Q1z9NErHf/cVUrmsI1kQp3hv8DhRm5kpNVfCuIQgw2TDOiml3PKIhCCEKnnrUcb+pl5VFFUYirmRynSyyKQppeTcI8tVpT4TbTqUVNZb3qGCTDKxQmpZrHM0aE+fnc9kpw2EZodnL+or1fFmR/laf5cdCWqNKRjXVd31LBXwd9s/HE8rRAE0TVsoK4hUJ0WdtbMBpdXn20IQOzt1SCo4iea16nE/BjssXx2SoEdguM/ooYhxBisMhvXH/UKa7krw5TjI4CT+Ule9UVyRy4hCDzqObe04y6ZgmAF9PwGYn8ywGseT33Eg6mh5aYLmEebEhKT/C7vStKs9sB/oA+RN96YseDv62QmMSf95PGhxyh9FQLgE4OCk3fZ93GANm5KkRtfvYidoj92wpLJlixMdBz2/7By6DzaWezM5TjJlUMOvpFIYeF8QhWYm6L0a6euc7KA7P1FTpJnWbEzGcKiRnG18iu5GNF+CFlDQRuXqHiHkAcsbdEIcxTMx7qOUVvGJ14ilj1bG2NFxAIflmq0PRJw7YreUiE/8dyEsNsXqAzHSPc75HnCrm7KbHvNB+F6J23eXELplWE6t14icJkMY7y8TQYjf+QQtUNIDS7JctsuHA39VxCN4za/7aYtgrvNaQWI2akKDSi6xz08YB08/vEgsCrIjroMX+5wJIZ7+WSJ+KZFWw0lFmo46lVGaKJK2KaLEUh6/VzCU6r1ubDGR6yqdNX4Kf3GKRMaQr9QR4CUcvavAl56qgdQlLdjEwjbR2aPhvmpfBP7IXqMaTy/Rr4GTNVYdTMR6G3WYV8RqhOAHshbBWRSZhppPhSIzeFQm2j60iEKNc6sW067KWIWygskWIq5PGf6p1AONi/idJ2ikIr5PqCKqro/VGUNkGLrdDRrMMZrtD+yIAcKcXL5KrwlaCnWVRRk/sHqZ8PwH7WPu/Z4BY0DCNlK7z3NDumUEm2cYe/JHdKnqK5rut5U+v4oopsHVfqtW7WDN1Rhbzx17O0N+X2Ug4OL46qFLJ6qtvXPvEzJuhuKnRUzXp5MK7OMsNl2COQ/b0WE4jWzNTNPl+FrdXpIWzgrupap0cz+Dy1k+42fs3k6Q09eIfflBncNvgub/BgZkcUWitLNIHrBt4p7/i1UXKosjRxxdge1G9HvZiY4YoJulCY226xWqGidLwxpEIwA/v1v7/OR41l1Go3oR8TPz1O212Fqnf6Djykbtcv70iXENJlZHFg9ghj8KZvMNghsifnTir02jN+fjscsahr+iW+xgz++jMMtPngXHz4/pL64VYVZsc0gaNah7zm2P9aYsaPwaUNWkjb/Ydz9KWZ55yB1+Y3LYY9QvysQHptdkWh0jnlp9LferC8wqwgrLgKrXdYx02wHzGXnCIVQ2F6JQoCbWuMcKUJQZhhMjEfKazQzCtqm6YXTFXFmUDo8vEmtaz7OwrDnKoY1WnaLHWcAJJ1iNHmxDSEwpT1FOZlw1l65B0o7gTZlWHMzM260YVCI6dqIs0oeXe8I6TbDXAzoVAgtqZCs56LQtRO8zRqwK+60mFmPenfQ4xePx+F6adrgXoAKcNl2vHYb2KSDzSPcwsdp5+QOtYRov0e2byXSRRG1/mcH2I0Sd0trCqidbZOsLmGQIPldUKKW1OFPyXg+TpULFiGtxHbuJeB/J8YRi2XSZq0Mpc1x3WXKXwDY/gn2rwbheCIhXEzn64o/jOqlrOs5VJNLv/Oo83HM5BGhlENV+w8jJjUkM4tZ8m272q846fxByI2EMjiuo1yaRamyRX79rLARgWFCH3qbn63COMwfk8rNL+Gb0wnLm/4DZ4ppKgmWJQQxTC78A+yUb7dlxU8e+s9e6AHn6UUb1ph6Bs+IbVBvr3eNsX08KzTea5Q37hCww9DMhpU8r2RYPPG8qPjX24xuX9klpKQ+fN+Je9Gb503688uNK/jBI9X7rgNucKMDdEwDd80BEg2wZIPWUrUu6I6zbkJOgGc6mw88f4z9VzXTU7MvAN4ey9ToWky3ta8GsNPyqlR5L8f6Pnft7gXeH8r6LC9n9AuX4ANsxUahJRiIsDiWonfuB2g3K8i/FBIKar80vGJV9mQfNj70NgToNEYzZNbQdS2c76J8LNGTJP7ZYs/OHkMRrZCdodF8wN+IAebD7/cteXHR/360/eyfCm7s3UeelHu+/kLBRZ/QRC1P0ke6K4+oi5bYa85HA7rKQzrj6J2Vt+qdci6sZniW/wo2ivCE3hWKPT5zTS2lBIz/xcUQrbOjJQtkJHatgcvRLbCDAyT7G178EJIhcVXuFZuwaKIPByjFkahYBXDYKHfjWrvr99/YouWNtM3P2178EI0mJANTYORuysIO5H9edEabBrdxrYHL8Q8ErKhaZT8oa4n7WCDL3ym8mJMIfbDSyJUTYRVdw15LdYpZNNXUaKZ/LO7odpPXJO0KyFPbcj8AcY6tnXe09cjBr/YdFsIhUOxcqlJavcVbP6wjzkohKDmcxEU0v6d0NlT+HBPS+f30PnJf6l71y+AQshWv4p5GvKl/2BDhGsMpm30ddu5rggw5ZpE5JTbMLrD+3yX4kEcxiFvzCuAQoQr9l9dvxSutCNEMP0KfwZMhdpz1mV+95O9nZramtiINmMjXNltAtkSmfd5Kk/ty67hh2bczHgC0w6BbTAJMVeuRX59hNx8qw8GzQ+EmaRE5vZWyr5rg3n79s3KyxO8O8aHnNfv+SQ2eYp/M0ge/73z8KeyYv27TxbJfMYsLbGwlPQKm8wM/dLdd5BXmF/HQvE3bh6xDmCT18GJD0H4toe9BmDI27gbpt5ZfgLvtO36VzifRosNARkDbd7FxBDZGGE1xr1mfk9m2QhgDrsymEepV+sfZyhPhaP5AD6vF2mWJui4uUcIK/FMI+2M0De7JG40C7ENLgHr9uc5zFV+eaT7vP5bYoRE8d28adNC/NKH54BAGHu/fjsfNWrLaIzmt5/7GNmF2AaXYPMHHtqUPjzqccnvl9MphTCmouf9HK8NoWP+a58wL8XQ5WBcSdqPiroMJRKJRCKRSCQSiUQikUgkEolEIpFIJBKJRCKRSCQSiUQikUgkkh3kv2rCD3QNDkWLAAAAAElFTkSuQmCC;clipPath=inset(18.89% 17.56% 16.67% 19.78%);" vertex="1" parent="1">
          <mxGeometry x="495.83000000000004" y="1421" width="58.34482758620689" height="60" as="geometry" />
        </mxCell>
        <mxCell id="8N3fOwnKWGibA3i21ugf-9" style="edgeStyle=orthogonalEdgeStyle;rounded=0;orthogonalLoop=1;jettySize=auto;html=1;exitX=1;exitY=0.5;exitDx=0;exitDy=0;entryX=0;entryY=0.5;entryDx=0;entryDy=0;startArrow=none;startFill=0;" edge="1" parent="1" source="8N3fOwnKWGibA3i21ugf-6" target="8N3fOwnKWGibA3i21ugf-7">
          <mxGeometry relative="1" as="geometry" />
        </mxCell>
        <mxCell id="8N3fOwnKWGibA3i21ugf-6" value="&lt;font style=&quot;font-size: 14px;&quot;&gt;RestAPI (FastApi)&lt;/font&gt;" style="rounded=0;whiteSpace=wrap;html=1;" vertex="1" parent="1">
          <mxGeometry x="105" y="1481" width="120" height="60" as="geometry" />
        </mxCell>
        <mxCell id="8N3fOwnKWGibA3i21ugf-17" style="edgeStyle=orthogonalEdgeStyle;rounded=0;orthogonalLoop=1;jettySize=auto;html=1;exitX=1;exitY=0.5;exitDx=0;exitDy=0;entryX=0;entryY=0.5;entryDx=0;entryDy=0;" edge="1" parent="1" source="8N3fOwnKWGibA3i21ugf-7" target="8N3fOwnKWGibA3i21ugf-8">
          <mxGeometry relative="1" as="geometry" />
        </mxCell>
        <mxCell id="8N3fOwnKWGibA3i21ugf-41" style="edgeStyle=orthogonalEdgeStyle;rounded=0;orthogonalLoop=1;jettySize=auto;html=1;exitX=0.5;exitY=1;exitDx=0;exitDy=0;entryX=0;entryY=0.5;entryDx=0;entryDy=0;" edge="1" parent="1" source="8N3fOwnKWGibA3i21ugf-7" target="8N3fOwnKWGibA3i21ugf-40">
          <mxGeometry relative="1" as="geometry" />
        </mxCell>
        <mxCell id="8N3fOwnKWGibA3i21ugf-7" value="&lt;font style=&quot;font-size: 14px;&quot;&gt;LLM interface (LangChain)&lt;/font&gt;" style="rounded=0;whiteSpace=wrap;html=1;" vertex="1" parent="1">
          <mxGeometry x="260" y="1481" width="120" height="60" as="geometry" />
        </mxCell>
        <mxCell id="8N3fOwnKWGibA3i21ugf-8" value="&lt;font style=&quot;font-size: 14px;&quot;&gt;ElasticSearch Connector&lt;/font&gt;" style="rounded=0;whiteSpace=wrap;html=1;" vertex="1" parent="1">
          <mxGeometry x="405" y="1481" width="120" height="60" as="geometry" />
        </mxCell>
        <mxCell id="8N3fOwnKWGibA3i21ugf-11" value="&lt;div&gt;&lt;span style=&quot;font-size: 14px; background-color: transparent; color: light-dark(rgb(0, 0, 0), rgb(255, 255, 255));&quot;&gt;ElasticSearch&lt;/span&gt;&lt;/div&gt;" style="rounded=0;whiteSpace=wrap;html=1;" vertex="1" parent="1">
          <mxGeometry x="650" y="1270" width="120" height="320" as="geometry" />
        </mxCell>
        <mxCell id="8N3fOwnKWGibA3i21ugf-12" value="" style="shape=rect;fillColor=#0F62FE;aspect=fixed;resizable=0;labelPosition=center;verticalLabelPosition=bottom;align=center;verticalAlign=top;strokeColor=none;fontSize=14;" vertex="1" parent="1">
          <mxGeometry x="710" y="1280" width="48" height="48" as="geometry" />
        </mxCell>
        <mxCell id="8N3fOwnKWGibA3i21ugf-13" value="" style="fillColor=#ffffff;strokeColor=none;dashed=0;outlineConnect=0;html=1;labelPosition=center;verticalLabelPosition=bottom;verticalAlign=top;part=1;movable=0;resizable=0;rotatable=0;shape=mxgraph.ibm_cloud.database--elastic" vertex="1" parent="8N3fOwnKWGibA3i21ugf-12">
          <mxGeometry width="24" height="24" relative="1" as="geometry">
            <mxPoint x="12" y="12" as="offset" />
          </mxGeometry>
        </mxCell>
        <mxCell id="8N3fOwnKWGibA3i21ugf-14" value="" style="endArrow=classic;html=1;rounded=0;exitX=1;exitY=0.5;exitDx=0;exitDy=0;" edge="1" parent="1" source="8N3fOwnKWGibA3i21ugf-8" target="8N3fOwnKWGibA3i21ugf-19">
          <mxGeometry width="50" height="50" relative="1" as="geometry">
            <mxPoint x="580" y="1700" as="sourcePoint" />
            <mxPoint x="630" y="1650" as="targetPoint" />
          </mxGeometry>
        </mxCell>
        <mxCell id="8N3fOwnKWGibA3i21ugf-15" value="&amp;lt;&amp;lt; retrieve &amp;gt;&amp;gt;&amp;nbsp;" style="text;html=1;align=center;verticalAlign=middle;whiteSpace=wrap;rounded=0;" vertex="1" parent="1">
          <mxGeometry x="550" y="1511" width="120" height="30" as="geometry" />
        </mxCell>
        <mxCell id="8N3fOwnKWGibA3i21ugf-18" style="edgeStyle=orthogonalEdgeStyle;rounded=0;orthogonalLoop=1;jettySize=auto;html=1;exitX=0.25;exitY=1;exitDx=0;exitDy=0;" edge="1" parent="1" source="8N3fOwnKWGibA3i21ugf-1" target="8N3fOwnKWGibA3i21ugf-6">
          <mxGeometry relative="1" as="geometry">
            <Array as="points">
              <mxPoint x="165" y="1340" />
            </Array>
          </mxGeometry>
        </mxCell>
        <mxCell id="8N3fOwnKWGibA3i21ugf-19" value="&lt;font style=&quot;font-size: 14px;&quot;&gt;Articles -index&lt;/font&gt;" style="shape=cylinder3;whiteSpace=wrap;html=1;boundedLbl=1;backgroundOutline=1;size=15;" vertex="1" parent="1">
          <mxGeometry x="670" y="1465.5" width="80" height="93" as="geometry" />
        </mxCell>
        <mxCell id="8N3fOwnKWGibA3i21ugf-20" value="&lt;font style=&quot;font-size: 14px;&quot;&gt;Groq (optional)&lt;/font&gt;&lt;div&gt;&lt;font style=&quot;font-size: 14px;&quot;&gt;&lt;br&gt;&lt;/font&gt;&lt;/div&gt;&lt;div&gt;&lt;font style=&quot;font-size: 14px;&quot;&gt;&lt;br&gt;&lt;/font&gt;&lt;/div&gt;" style="rounded=0;whiteSpace=wrap;html=1;dashed=1;" vertex="1" parent="1">
          <mxGeometry x="80" y="1658" width="170" height="102" as="geometry" />
        </mxCell>
        <mxCell id="8N3fOwnKWGibA3i21ugf-21" value="&lt;font style=&quot;font-size: 14px;&quot;&gt;OpenAI (optional)&lt;/font&gt;&lt;div&gt;&lt;font style=&quot;font-size: 14px;&quot;&gt;&lt;br&gt;&lt;/font&gt;&lt;/div&gt;&lt;div&gt;&lt;font style=&quot;font-size: 14px;&quot;&gt;&lt;br&gt;&lt;/font&gt;&lt;/div&gt;" style="rounded=0;whiteSpace=wrap;html=1;dashed=1;" vertex="1" parent="1">
          <mxGeometry x="80" y="1768" width="170" height="102" as="geometry" />
        </mxCell>
        <mxCell id="8N3fOwnKWGibA3i21ugf-24" value="" style="shape=image;verticalLabelPosition=bottom;labelBackgroundColor=default;verticalAlign=top;aspect=fixed;imageAspect=0;image=data:image/png,iVBORw0KGgoAAAANSUhEUgAAAXMAAACICAMAAAAiRvvOAAAAe1BMVEX///8AAADo6Ojr6+unp6dYWFhFRUXHx8eQkJB0dHTz8/NgYGDm5ubMzMz29vb8/Pzg4OCZmZlra2utra0jIyOCgoLBwcF6enq1tbXY2Ng4ODhUVFSfn58bGxvZ2dmJiYkvLy8WFhZDQ0MLCwtLS0sxMTFlZWU8PDwZGRnv3NLMAAANKUlEQVR4nO1dZ3viMAxmhxVSVsoqo/P+/y88AjTElmRLyqAtvB/u7jnAdl7LkixLTq32wAMPPPDA3SDaBtPxbj7f7TaLcFhOH81lEE9bm9Y0Dp+0LYRBHAfBsqQRDpdB0n64bJbT/hXb1mRWN/H1vGgU2EO0bE1WZg8vk00Y8VsYheNPY5Bvg13cL26E/XjXNsY3m4yDUXHtZxEFvZc6jv1uWUgXjVab6KHenrIE6mnzjv9+VcwQw90H3v772L+gmo0LasPGWYhGDZe8Pu3eKDrOtG/yTnU07Th7qK9jTwv9FkHIGf+6ORfkcEcJ3QlfLQ8Fg+9vRvX65PQ/xycmv70k5S+D5zyqrfHM6OFt42hhyGihHepHGK7zUjD5foza8Y/g+B/T5N84tsR6hV1q1ebwk9lDnWJ9OPH/NsGrUsWEr7z2e27Bm50Eu598Mzr9hXPe73H5OGKseZ4RR8a/MUNbmPMbGCg0zHDgb/cbXZe9P3I+unDeqyXKA+V8IeDjiL1cjqaiDjBBj2VjdGkoFGNR8/8CuqWU8+OyOcpJB+M8EkzwBV3Z8/QZajIDRMwjtmL6xpfI8jRW/hZN9Mi2Us5byaA3c4TzrbS3BB2JVg+FjUMZUo1xwR+hcKGf8EI5jinnmyiRnx70WzTdJdiyH0i2ao/+ImhBpplSzLkjlNiaDAi/9vDN+bgWH9Uw5Lyr666OSSMOiXk+AciPeowD3ghlmi8D3Gjs5vMocRqez3MynVtzL/AFAHhrl+P1GwDSKZ60K94Z8YRIrMqv2LEoMKFcVBdwSOe6/VfYGz2mU45j5ad8n6d9tvpKscvTXZ1UaBnIXaKp1UIOKU/w6qM8h5QnEHpwtVa+7up+QypXXR9WC3p7c4FHp6t1+TdsGXEjcDe2an9+Dtaeled2GRX+hhUs8XpVb+6wXN2z/L3K1d++JLzTp5t52cXXHcXTwrG8nUv3yTXUr/kiHCa6e/QUtNIe2vwWBpvg4uE0w5ZL6TvMjksoJq3wIlHDYOzyBARbFVKR7eCxTUg+k8tyH8hh9gLboXgan84gzM1jRLYwAZ7qktZjZPCFntI5CG/E5E7YZzKuIBTlG6Gf+pS9pZcWRcLHAvfgwrY9g9RMd1HRiqZE6Nu2ESkIxTnDOehTtoUb9COm2GGGmzgDaAwwwZJ4IIezE5p+ImFw5vSxwUZECsFhi2y+T6h/5nkuel7z4T57wjmgpgkPRkt8K9R8zZwPSETTUO2Ci93AqZ6X9lHxCTztgvoDz75fjdCZwgN4aA//JCf8qBh6x4iKOuowots1r+uHOhSsLTkmQpyQM9bjBP0mJhCcrXiKJvZw9LpPgUYxEauDrlrGyQA6qYznwXZDvPAJZhgx4cXEHJ8cCpju9G98a7jO6MCvYQaUlSiDPRpDFpBfcfdTiKRjXCKeKDPKdwEm5izKcdKBoGPnTszcJIx0zY/4tg1Rg1CjI06LP9xkANHmDGE6A1EvICiPmCb2kSNyIuDVEl/+IdFANipwwhDFIMwXgA14zecViO60ZBgRCsG5Etwf+SQKWXuSZCE4XHDgF+V6ogRwKe4lP4fxTGu7BYVCYm0QufOE++CWUkYItKO2toSL+13UA6bBRMkGI/BzU+MiQiHKUYMP6ImkAzdOSAgcsL3s4azyj09PgAE4+pwdBdQuhlxACypch2BTfnB+HaoWab4KDMdZXwBeSxttR9KDNFUSCJYhiMD7Elp4xK1ykgiceoEBvcDTIZRSaQ4h0Mfik0dgEIzAEBgg0w29Asya0/MDsWDuCf4VwFky97BA271IOwCcyHNTD3YTGc8F5MuIBwi1BbLtop+HSht1AKwsc78DNIP0qBY8kFQ31RAHP6OxwQDFqXZIDM/xXfA8moQB4FYYnwJHTLqSACdCC5cAPGfG0APFoEjxBmN0KHRgsjX52sAmGNFSoI2ljwS8UU0Ctm1F3+mPyFMNB4DRckRPgC5W9AcVojHJdimEWHvZy8ipKymAibtGNe1PpBkTJ9hP6VCg9lD4x3kZABfdmGT7Q+mGCMihihPguaTu5tD+ROy1JLA1qMPm2G6LIIyRgR0iMo6/7EeSdgF2kQp1jij0dC2C6IWqYsdW6A7fx96vKEx2De7DjIVlP5LUSgNVqSogBWsxteTApGmahx4x/VX7cFy1roAnZkSI7MFIVQOQUF0xnN1KulpsCd2rmgcaij4Fs4/l5DuiBHY8I6vMgIBJOQdrX1cjaVuFlHPb6xLbmxMa9ihp58r+pq60z+bciB/k5RysWsk56hW2Fk3tvO26KXZcNYRz2irYcl4M58awH5xbKF+35Oa8at0iD/IlEHBuj0RnQ0vlHNhQXfW13UrKuT14zTZUxLkdm1GV2JbLeUm+YipdxfiKAs5tz1p4AHNBtZyr1iK9JwL2QlVPL+DcPjeTh44TlMo50H+qtQikOWUWzIbKpgk4ByeFKgNVLud2ZEHlQINDWTrGpZpTAedgYakWbrmcgwC8Ri5sVzETnDzQH/Eh4BwoS1ka4QUizsViBNaiYvEDSjKGC5zaa+ZUwDkIuKg6LJdz4KAr5AIcq2TCzWBOZdVvZ0g4B5Os6bBczmEGjdyzAHm3GYcTzKnGQ5dw7s5CYKJczmHZprgJkF5uJP2AOVVEQCScw3QYxZFAyZzDNCxpyAXkwRr7EJDkqdj+SziHacDuvC8UJXMOnkfq+8DkOMM9gymocist4hwKkTzdomTOkZoB2bkF+Lm5v4c5pHIFK+IcqYAW37BVNudQLkQ+NEx1tkIcsPBSLHcizpGU9TepuiybcySZWaBdkMIVS6qQUgypGZVxjhQZSHfXZXOOVWqwN8zgpBLJu0VKuIQRYxnnSHGLdNdROucIb1wNiN0eAeYLqal6kW0OhZxjNZQy0kWcq9I5sFJ3VuVAHyn738OvISWyH6Kdl5BztAZYdCpYPudoaTjDoxsekN8hagmrOJxJ1IuUc/TCwr3g7vbyOcfvs/E2hZY3o/mB6K0WAkMq5Zy4oIddgVkF54jrcsTavf7xC0xQnYRftcl3GcWcI4VjCVZcR70CzqmLoRwhuQC/wYXImMXvX5pxd6RizsnbuJjXh1fBOXVB2Z6ID4XExYJUKvaIuGtrzaNAzjl9/dd+w9DrlXBOXhl26IIhOl4AQK5d8iLf1ZThwSg4BznrGbw8T0N3fKMSzl1X4812ccp7M+wiOw5G746bBF/HoYdDDeeOi+dQGA58NZz77jc+fK3XHecLKOr1T1f7nusVZ511O4t11sJqOKduzKJgRIlEnPPdIYBcN7cm+HI2HznfSAKRrQ9Uce671dLCTThXXLhr4ODZz/cPoubycy57YcFtOCfuUuPCawvRK6hIFMC5SNJvxHmeK21fGO5H03s7awZFcC5574Gec01iQQbid1l8Y8WKWfUFt3EXwnltiN4YiOFmnGvvDOdeABbx78UvhnP+HeW341z30g1B1J5943dRnHOvzNZzrirvNNB07HkIiI7auCq2MM5rTZaZuiXn4re/9IQHvCPe+wSK4/zoNP5jPEb2B07ObU+gCM5rQ8HbSFaKtKyQY0qL5JzzooUbc35khalgDsr+pn6vsVjOj10e3P3xObcbKojz43bC8/rRBMTt5SxQN6inKJpz13X+CZycG35ZSXKeYOt5A8VnjreHJgjcXlzxnB9d1Zh8ObHJuZ3dbQQd16+dLFa6ElQK8YQa4mBRwDuh+wuH4SiD8wTDxbyNPZVBq33uqLuRRIvt1H6J9/5zs9RVSyOIws0A3ypmVWiRnJ+7bW7DwIRxkGsvQV2VaS4Mw3i66XbHrTh4KozuK6KnIG6NuyaytqJwzn0o5haYX42qOQd5ELoK9l+NqjkHe2VVdfjvRtWcg6BQCQr1p6Nqzm2rrikD++2omHOQ7litq/gzUDHnIAhX4E7z16BazmFmTNmu6U9EtZyD5Nd9mb39VFTKOSw7ucEu9PaolHN4qiQoFvg7qJJzeHyquv7k16NCzpE6n3v0WqrkHKs4ucNNaK1CzrFE1ru0oIVw/sw51Rphx8D3KeYFcP7Micc2sdOTOxXz/JyfjnZ9txjgWbzaMf925OX8cprecRURRXjt5R2eVpyRk/NrAkOXVM6LA0q57O23fwn5OM/mjLxt0GqQGHnZ8AkFZDf8UuTi3E7T6dn5KNsdmVV2t5olH+dYRmp7fMlfaIQtV3KX9EVyfwk5OPckozmhe/nGH4Ge8zyUz+50N3SGmvM8lN/l6dAVWs6F1QsmdG9q+jNQy3mO4sv7lvI8+lxbUC+7L+wvIoffwq7TMzC4a/N5Qh7/XFT0f8G9xhKzyLUP7UvvjjiIr9f9i8gZ4/IXzWUxf+iVBHljuX1eSWqCDusyzztA/nOiLc9r3N9xUMtCEWfQW/+dHZ1iK+B+N4o592+OXfXXb/M7LKZwAKQQajeJ2zFeavwxz1ns+vcQNSzkcC1GwWaSlfeXwS6++01nJehvwzAIwuW9R1UeeOCBBx544Bv/ATMVoYCljye9AAAAAElFTkSuQmCC;" vertex="1" parent="1">
          <mxGeometry x="201" y="1668" width="27.28" height="10" as="geometry" />
        </mxCell>
        <mxCell id="8N3fOwnKWGibA3i21ugf-25" value="" style="shape=image;verticalLabelPosition=bottom;labelBackgroundColor=default;verticalAlign=top;aspect=fixed;imageAspect=0;image=data:image/png,iVBORw0KGgoAAAANSUhEUgAAAOEAAADhCAMAAAAJbSJIAAAAe1BMVEX///8AAAAVFRVLS0vd3d0MDAza2trg4OD6+vr39/e6urpZWVnCwsLz8/OcnJzq6urNzc3V1dWjo6MnJyeIiIhwcHCrq6tUVFQuLi5eXl52dnaCgoKRkZE/Pz+zs7Nra2tDQ0N8fHwrKyuZmZkaGhqPj482NjYhISFAQEBGT5JTAAALjklEQVR4nO1daVvyOhCliKxlFXABBBT1/f+/8CLKZDkzaVoSivfJ+UhCm9MmsydtNBISEhISEhISEhISEhISEhISEhISEhISEhISEhISEhIS/ifo5KPVdnB397jdv7+2e3UPJzCm73eZhc95XveogqG1stmdsZjUPbYQ6G8kft/4mtU9vkvRP7j4nfCnObY/C/kd0fy7C3Lvw+8bg2HdQ62ETvEEVfiLr/G1BL8jVnWPtzTmSGKzWC/7ed5frhdv2Pp4+ttwMls9b76azebT3eLjtd2tmYaMF5vdaGq0D/O9TfFzOFk9APHdqF0TBTe25jDXY65TDnYOjwP/91phvMH7V7Ffy5NjNpiK16gFa31w786uk3tPjne3xDHXBrYpnGB7T4rZ9maU5lAblYcOKKFV5Ol+XWiW2rKw8wSlpwPPN6E8RmpAhYbK+LkMvyPuO9egUDBoNZx+UV/GKsge58t82m63J/ly/si01+9RqrfiFqLcAjysbYHZmu3sToXPLTKmNJJBQUdwrAb86xl/WP1qljdqYjlDTUPL6DnabA59N7uhidqhYTilzDtMUPeL6Zlmbp3iZn8exJ2jU960+X0UXnhi9K9RadAYZIegA7bos49h3dP/9hhuxCVB4lF8hb29ze/Jd1npS7e26BWpCmkVzmx+HmYPQV+MdflTNAC+GU20VakVpb3FmuYpiYM51zoe2PwGZd+Epv7rURkj1+3BRHsoP8iu+vfb5cMtjfaIJiE2oolWSVhoSuPa8cfh+5e6+afdiibavmJ2TUmbf5cOuRTaphFmL0Mw0e5kq6Q7e/x0pKS0edoKNHgPgJdnaYAnq9mVp/idzbIMUvqGFWdRsM5s5M72kXwpbTaL41cXCsbAjdZXBjDdBDOa9iLHkyyHQ3AEldV+HYWBRkpmG6V6y84RwAaHY8euNBXoKrbXAwBkyAnmyNTv9w7/POcCpy+cxCUX9CksFxZCyFpg+CxfCB2OXzBm65IaoztRXSaD5GIoqsCeWMpwtF1gtalYV/SFaBGcU0kCz/Beus4ycwLcR5rPJfySSjAn1mqofuAZNvnLTGx1iVib/1icf48sagwhs/s2UqowHGJMeNSH30wRRfLbsbADwJhaP0q8AkO0Fk6aHu1Y3c7rn38E+zckOvrtfzV8aYb9zAatOfRF9iQ5ycEQ5n0YaJbM4WyllGSI6VE9ZNO1A8FKsLTol1jsGsbsOpASKMUQQ1K2aMS0zW/UWKmLSOyMe2SZsjPLMERrb476G8XsKUt6DYaaHNWUlT9DDEkJMVNUle+aDIi3DtvqhroY92WI0+9JTFp0wdxpTohhPMNUBc22+s+eDFGEsFP0DAzRkSopSG9Vh7YKjYF5MUQN8QOHBTaR7N9oXv5cGJYHw7ZcTvvpsKNZLzSiXUp3eDB/L2TYW2QuPMvuP6Nbsni+hSqXsZJ+BQwfCnyIDExsHZwHGavARoUsrYYChoD5EIWOIwwHacdDeG7WiO0nXo7h9lsDjjGU6giDjqy+kXLBShnaYynDcHPWgFOQPY5w+NAq6owTFKbVBD67P8Ombij0IentkJFts/okShqR5CHUrHkztCtt7NnnTEuZCjWGsCGTEsonPBkysxCVgSO339XXbgzDjS4O69yL4SMvHjpgmzmCMLoBsLiMDQMVcoYmD4aOsgS0zeT4ce7VqyKUKIWmYobuuiCwCDZiDkAvrwm9FOnxbaCpiGFx8A8CUwtJc2hvMXTEjUQZVkNUi5cawG02UjJck7+BzVMKgqFzFoAhqMajbSYQUG504KKFuO+QYXi8E6s5tHx32HpMWgAYjo3FUHB11VJ84JorQ5XIQlM8hvxrUv5U0JVYXR+WYgj1RUyFrYq7hxWndFkw7InhhP1DKYaNDpSx444SJWyC6kSK58t26c74uRrD4zoD1WG/RrViglZjkt0r+xamb1CVIeNz2EKVYuKukuTSULaV3aJHUjTfoDpD8HhtmapM8JApfTU1bKvRHA7FOC5g2Gi0DI/XVgsqchu0jo+uatuZVs7vPjf7V2JoerwQViB/pGj7SimooKfdYudbfhK3FzLU0wDAkEz1oDXD6qHarlkPsmHfVc4XM1QSBxiqsVxACEFXRcONq1S/nCFZGcBQLcSg1UMq4YXru2dv4s4oWlidoaMkh24TNOqmrCVu0Fa8L3N2tlGaIVkFYZ1EZVCxIkxIoEVhSDo4bLhGqUQhsI5lMrEYUogucEBKmbxffAdu+2tchoF3JWpZ4K3QZQJlTWLlngYqyjN/li9BCyZ0UFGbhmKqGYKDrgLhE9rKsjUbZIb0HINvv9BqosTKdKyj2LpkulHmbTbJDOkPwdNQLW00csEAurFyzNSUTmabB8Pw57/pc9ARREA3lhcJdqWe2SoydESNLodedXBwrDCf1BmWd5ntIkN6MFEKMY3SAVfiFiowBqYWxbnszZBsxDiHMJkP3hEqwSoa7YHwhSTmBUSG1D/OJv2u6Q9K4fdvYEHsWQILxUA8EZuhSkHF2sBuubxC9vMEKCw51W6z+0j8Ge7FlxsKMDDHvl405Ha55Ib4MqTusSrcxszQXBV4RWfRbDpkSPBMLIZqhsc6YinPGOAmFwV33Ve/rOVN/4xWSitICVcdxV7kd7J2SjFUVlC0AwjE7UqOZSHs4fp9KmUYamsk2pG9pKlRZTv0E1MQSyUaZRiqm8Y7c5FUfo6be+TzZvDoFiWdSjDUrMF4x5zReKbcm+HPV8Mgjq5h/Blq9SYRj82ke5w0PQpKLIht/7P7mEl6b4b6rqSIGy1NhpyFacYW0AY/WK65L0NdE8c8GotucnawUVD+0/wqXIAg5T0Zahs+4m1J+AbZKErJo6F53q2MC5DZx+zH0LhU1MPdaVHpEwU83lPYGBcguxfdi6GROIh7JCaFjoxgFK62+z0qTH71eDA0z8SKfJwSvS6ryNOxb+QXUkKzkGHbXOmxz1cmvxYsX2nvzw/kk0ipC//zwZoLUjg6GJRIQ1ubTV2c4DhdT9pZKD2p0IQQdC/GDJVO7nRYrB1lFwn3MXCNI8BpUbBKCVMXTq/DCJGbTSzB2OcNnKA0A7+ybEPOdbqe2ddo6mYMrnPMt7IOBeFovJcvh/dvRTjMwhkmWhK+RF+AStBIPVS41zGrYJ+ouVhbVqvzWQWGimPIZyP9pC5cp+tBqaUlJO140FVW4C+0k60d9uH0te9wUjFabItbIx70dk1+DT0/U1E5TdkqIxNaYvHl6keza35MlSwsKk0ubn5u29Vy8rwmI8qHS8DwsT3iE0jQ1HNqqSbJy5bMo/HKUyDPuaaPB2iCsFSlLjog7MleDa3uKcRwqyCrQhGdSP50toaWyX4JM97y0Cqkso1nTAFDNnI8iVZ6fd8TMhS2T9UHBnMcG/Ed2wGvB8PvLqxH7kDW0PltDrq44ylER9fYzPPgFHlYgCof3fINJXBr/UTJ0BzzozxmjMS5jbAe9atNzvzA9m82r5yhPUQBU3TctZrRdX8RCV24wdL0UVszzBzyOws17KnrVY7ydKLHJenftuvRcrmcrRfc0YHNQi9Pm9PX4FCEst+MKbYyy3yy5iooPn9Gg2Siadir3leIG3phXBjrJhTXMHW16G+0k2jKw/vzVJ9FFI3IxQ18A0lBjnVbcApH0zO+jUWoMBO3K1sQRU3HtHuuHJjxwQQss1/YOmPOTb++lX650a/pTuAz1Q+rfhc+bZl9feSavdmbziDTeINvkDDOl6P5y8vL6n3WP39QFO3SI3aL+Xo9395xpZi3tgaLwVb7iWjelBT1xNBfad6Moi8LdqZy+Hsz9Az86hqH632/IgbacPCVjUXd/uDF6Eg684SPP8/vhFfuG5VHbOv+iGNAdPO5FXgbvNf/Gc7gGE/6y9FoNFv2pzfzxd+EhISEhISEhISEhISEhISEhISEhISEhISEhISEhISEhIvxH01Ae6CKLSVHAAAAAElFTkSuQmCC;" vertex="1" parent="1">
          <mxGeometry x="216" y="1772" width="20" height="20" as="geometry" />
        </mxCell>
        <mxCell id="8N3fOwnKWGibA3i21ugf-32" value="&lt;font style=&quot;font-size: 14px;&quot;&gt;Llama 3.1&lt;/font&gt;" style="rounded=0;whiteSpace=wrap;html=1;dashed=1;" vertex="1" parent="1">
          <mxGeometry x="113.64" y="1713" width="120" height="30" as="geometry" />
        </mxCell>
        <mxCell id="8N3fOwnKWGibA3i21ugf-33" value="&lt;font style=&quot;font-size: 14px;&quot;&gt;GPT-4o&lt;/font&gt;" style="rounded=0;whiteSpace=wrap;html=1;dashed=1;" vertex="1" parent="1">
          <mxGeometry x="108.28" y="1820" width="120" height="30" as="geometry" />
        </mxCell>
        <mxCell id="8N3fOwnKWGibA3i21ugf-22" style="edgeStyle=orthogonalEdgeStyle;rounded=0;orthogonalLoop=1;jettySize=auto;html=1;exitX=0.25;exitY=1;exitDx=0;exitDy=0;entryX=1;entryY=0.5;entryDx=0;entryDy=0;" edge="1" parent="1" source="8N3fOwnKWGibA3i21ugf-7" target="8N3fOwnKWGibA3i21ugf-32">
          <mxGeometry relative="1" as="geometry" />
        </mxCell>
        <mxCell id="8N3fOwnKWGibA3i21ugf-23" style="edgeStyle=orthogonalEdgeStyle;rounded=0;orthogonalLoop=1;jettySize=auto;html=1;exitX=0.25;exitY=1;exitDx=0;exitDy=0;entryX=1;entryY=0.5;entryDx=0;entryDy=0;" edge="1" parent="1" source="8N3fOwnKWGibA3i21ugf-7" target="8N3fOwnKWGibA3i21ugf-33">
          <mxGeometry relative="1" as="geometry" />
        </mxCell>
        <mxCell id="8N3fOwnKWGibA3i21ugf-34" value="&lt;div&gt;&lt;font style=&quot;font-size: 14px;&quot;&gt;&lt;br&gt;&lt;/font&gt;&lt;/div&gt;&lt;div&gt;&lt;font style=&quot;font-size: 14px;&quot;&gt;&lt;br&gt;&lt;/font&gt;&lt;/div&gt;&lt;div&gt;&lt;font style=&quot;font-size: 14px;&quot;&gt;&lt;br&gt;&lt;/font&gt;&lt;/div&gt;&lt;div&gt;&lt;font style=&quot;font-size: 14px;&quot;&gt;&lt;br&gt;&lt;/font&gt;&lt;/div&gt;&lt;div&gt;&lt;font style=&quot;font-size: 14px;&quot;&gt;&lt;br&gt;&lt;/font&gt;&lt;/div&gt;&lt;div&gt;&lt;font style=&quot;font-size: 14px;&quot;&gt;HuggingFace&lt;/font&gt;&lt;/div&gt;&lt;div&gt;&lt;font style=&quot;font-size: 14px;&quot;&gt;&lt;br&gt;&lt;/font&gt;&lt;/div&gt;&lt;div&gt;&lt;font style=&quot;font-size: 14px;&quot;&gt;&lt;br&gt;&lt;/font&gt;&lt;/div&gt;" style="rounded=0;whiteSpace=wrap;html=1;" vertex="1" parent="1">
          <mxGeometry x="385" y="1678" width="170" height="102" as="geometry" />
        </mxCell>
        <mxCell id="8N3fOwnKWGibA3i21ugf-36" value="&lt;font style=&quot;font-size: 14px;&quot;&gt;t5-small&lt;/font&gt;" style="rounded=0;whiteSpace=wrap;html=1;" vertex="1" parent="1">
          <mxGeometry x="413.28" y="1695" width="120" height="30" as="geometry" />
        </mxCell>
        <mxCell id="8N3fOwnKWGibA3i21ugf-27" value="" style="shape=image;verticalLabelPosition=bottom;labelBackgroundColor=default;verticalAlign=top;aspect=fixed;imageAspect=0;image=data:image/png,iVBORw0KGgoAAAANSUhEUgAAAOEAAADhCAMAAAAJbSJIAAABIFBMVEX/////0h7/rAM6O0X/xxb/qgD/1B/vTk7/xhX/yRf/1R//qAD/pQD/zxz/0R3/zRv/2hr/swr/sQj/uhD/wBT/tw3/vhM2OEUzNkYgKkcqMEb/5MD/yHj/+fEbJ0f/3rL/8uD/69AkLEf/2KL/ukv/tTj/wmX/26v/syz/6MnxxyIoL0b3T0/uQVD/0ZH/1Jn/zYb/9Ob/xnH/wF7btimnjTV2Zz3owCVEQkQnOkT/7tj/vFHVsSpPSkKHdDtcVEGyljNpXj+WgDiMeDpVT0LCoi9AO0XdTE2yR0paPUbzcUXxYUnOqyyvkzN5aj2chDeSQ0lxQEeEQkhjWUDCSEtNPEagREkZNkXGQk09R0KZTkb1iT75pzP7uCv3mDnwWUucQiOpAAAXvklEQVR4nO1dCXfbNvKPaALhJZGiSFmWfMhX7NjxEduJ41xNm2R7pc1uu93/0T2+/7dYgBhcJCWClGQl72nevm0kiyR+mMHcAB88WNGKVrSiFa1oRSta0YpWtKIVrWhFK1qRQlvj3dHOztH+/v7Rzs7j3fHWsgc0PxqPLq4OrCAIfJXIZ+tgc3/0dNnDm42e7mweUmTIKidEkPoHl18pzK2dK0TATcCmEoFpbY6+Mqkdnx8HEzlXzs3gcP+rYeXTcyso5x3K/TfHy+B4/2vg5M5hCTyEqLzG3W5KqduNCdMQKgL1g1ejZQOYTk8v8yuPYLPSfuKGLaxTJ7STftfyczgJ8vMvl5Evr3X2UXCJS6G1cKtA9FsC1E1SS1+yfnD1Za7I3YNAHShCaRJ6pdh0oARnmHQ1VqLgerxsOAV6eRBoKqXn4ipsOkq7pyoggvHL4uPWI8k/okEoPHN8QmrtVBFXFGx+QevxXJFPP04awAOQncSSK9n395cNDGikjip1vWbogDy7q9zt+OWywRHaupYL0O+1m7JP8tELU4kx2Fw2vgcjuXQovhnhMYxYwehbu8sF+IgzEPnpfPABRimrweUS8b0UKxDF7tzwZRg9WxgP/3hphmNfrECUeHMFmIFMJBuX5KwKCfXTzrzhZRDbXbRMSd06FlNsz2YgJpOXcGfOP7h3gGP+bNRdCAMZ4XbMIVr37OE8FhKaLIqBDCLuc1Hxx/cJcEfomHDuGiaP0ebSEtyjZTwKuI1YMLyM2vG9q1RuJfzeohmYEW5xnXpfEAXAxS5Bhbyef58QuYj6zr1wkEHk1j94vHiAIw7Qvj+AioMTLDye2uVKZr5+aDVEByD6C3ZSn3IOuveKT4WIFmv6rWUBlBDR8SIBHqIlrEEBEdaif704gJv+vWtRlbw+TPDFogCCr4b6ywFIIKZoof4baBmU3pehLxIGB85fjLY5ZnePl8XBjECfLiRchEVoLTAcrCYcgipYQLIYTP0y7IQGEWxGMH/Dby1Zy3DyUjaSw3kDBBmNl6dlBFkLkdOXoEfby4ZH5NQFOZ2vPmV6FCXLllFKmBl+NFfX5ujLkVFCeAGxIqjohaedDAnkdI4u+KX/ZehRTqBP/aN5AdyCoHDZwCR1mH+K5oWQWQrfMXo4xl7DKmmNK3GC5hlkMBYiEzWDvejk5vVNJ6pdisIRvfK2ZXglKBt/PgiBhdWJGRzdfre2vbe3t/3mWbuW2sXRzdvhBr3ym3fY6EpnjkyEVditfLDX+nV7sJbR+nD7WWTORu/kW3nl6TuTK4GJc1mJ54Ys9G4HMMqMTr+pbIfiFL3eU6/ceG4iqcDEeahT34yF3u3G+ppKgzeGesN7va1duDb8Nqq+Cpg4B5u4Y8ZC3FrTAZKBPjcYKLnyZCN34drpdwZXMnU6B8fm2Mxfi94P8+Nc2/hoojSibweFK7dvDdhvzcc7ZUEFSiqehk+2C8NcW39hwIqCjGYSbiCnuD+fEAPiwspxPiuykDDxdTUTo7dFFhImnlQzse3PJU5kACsLhdE3+VWYseK7aoTeacmFa8N31Vfi7jx0zcg3Cyq8grbIxPSbSmHDt6VXDt4bLGGb6ZrxTAgfoSl6RsIu0YeMKhF6r/dKEeb0cOkMM4Phn8+E0J+kZ4itC0PRyTYJ4Xo1wk+lUqojxO0wLGlaxT1mE2cB+JgJaTE7g8MU+ci3EvZc3CpRiEbKFN+U8/CtuBLjJCaPQmlhqWB3djHNNGlJVCFKsshifIxelGqaaptfamaIpnnGn6k0DRUicDx71o3duiCkso2HQMxy4NF7VeevA9zhLwbW4s26flFGGzccTccSVIAIYjpDip/VYgqalOfzGHXpX73XciGub/z+zcYpHa+JVWOWdLCx/u0LuSKleINJAIh535G530FzhJBiKwiH+lR4bPRhXYzuNopaH3/fHm68NfGgO9vD0733N1EUvRMCu8fNIa9TqLOpEtMTzX1TZivSAiP0nT/9bCg3fHjDEy8L9m/f/WIUP3m3zz62spAwegeCMHgjpqavPcrPT0+2RmewF1aprcChvlWJzUD0Cxve9ic+/Z5hKkP+MHqereb1UyHdONUeVegA6c+2EPkyzI/I1RGC6ESfKReH741CpglYOwMi64O9W6Gg9AVRQIjt2RbiqHwZgsub4yGB+HFjePphprS4d7M92PtwIu/BjTqX0vxsw0Js2kbE8heF1c3Daz6vQoq9k8+fZ9xv4d2+/6ilaRxdXgpKLyt7+zsNEV4joUh0SrTHKs8zXXqTidxC/6xNZmEsjMd+0zZwdteyRLCyzcyvCo5nJEcuCVRcMDDZDVXNVrmiaVFPSgJcdI+p4j+VNCSDqmmYGR6zwKL0sR22pwVZi28ewg6TGL9bVp5lWq9hKoOp0gnNJTjsp93e/TRHYafXTfvlUThGMyjT/QmqFG7darzNsD5N2ErcEsq0We8wqxreTy93Y2IuQcPUd+aVVuYRl0xgLpp5pgcTjcWXRJlnipptxMyy3WgpraQ1KDOIDTPfzMrecz93bXJmMPn+V4SwWVr4a0IYN0LIajJfSg/NJILgYwaE9XmIoyiqHyVij1zWYDYZwkbVbmjBqN1Pim8+vHn7qWYchaPOu+cvnnfqQ3RmcL0ZQrvuI6O1wfpgb/CsZc4RHN2+3R4O1k8NalX5S5OZEdZ1rnkSe7jxuW2GkeB7zlox1j/UTvJ0kpnXoVOzr1uWy4Yb351UY/Sim+fbImFeG2F7FoTMWjg1m2bVMtRw+30FRi96/a3EZ1QW1ylMrOb2kCmppCTGN0W4tjbY/vVmYiMX9ryPHzaUgodBRTV/i5BlTJt1fccMYV1zkSsHDzbevGuXgKRZ8c+DU61kZVCrypPNPO9mfulhNjv9uq53odC2Ptx+/vEk8njnISa8i6LbZx+2890NJnX/PMIsekJXjRCyqkXPrrkQITWvD324/eb9x5sTatUjfPL63a/rG8NixdGkP0Gntpul/RumE1mjSerWXIjljSdr64Ph3gbtXxtsbOwNyzpM1tb2bupa/NDN9nk3LJJeZAXgrltzIXqfSuvWJrRRO/Nj27PkaVhHW+zWXIi4NaEvo5JMOqFy5Lgsa9tsu94uS8W6dS1iWaOaEZkUxXVq21B8apYvBdfbsesuxHelC7GaTIriGmHXnsUtFc00dk3nG3dK2ysqqb69b9nuLAYfkm1Wz63rmka/NhLTU6NmTZXajp3OYA4hJYxSu7aYvm6ka4Z1NSkRUpep0qYdNTugauqKqdKYoUnhhH9zgM/qOzS2zVRp02aMMcTANtGmcK6q2ZO9T0Um3q399W93/MMfv93d5X9watr5jrOtJ7iFiZA6s6jSBxAhWolrh57biy1kdROzYwOj33Mr8e7Hvz958uRvwLo/Hj558sMfOsZTU1OB3T4bSocIKSvzN8u0UWKqJrVdJ+Z9bH6xga5sFLeaOr37C8H3kBADdfc9+SfBqMrq+gsjgBg7lp/VExEZis18toY5fUoX4NVodXu/VxSnwhfRZ8Um3v3G8D188gOFePcP+PRQiu3a9k0RYUm/ZRirQ4nBo2naqMC9GpTrh0BWWx8HDulByDmIb4Sc3v3AEFFQP1IZlR//wSGW7D/wOmHY1uNKL9FPHEbsAIJZ9nUHVhkhpJgPz+7STlO/62hTjk+4/333d4Ho4cPv7+4yGeUQf2AQB3ljjzt9eky0b/WV8ya9vl86nubLkPebCGDyJN1QjEQcUolizWzyXQYawIdPvv/te+1zxsX1tVyiVB62p5xGpQDUzgJv3GtCaUdp9ei5odMVUsKmFofqDOiHukQfKcS7v6qAstWnf/ztjoSOJ7kmGuWMVsuHniula7fvhnYsfzDLtpktKaY9moTw+EqH1paOfoC8r7kGGcQfc4gK9OQvg/UcQH6EiZjb7M82P0apnxlm2Uo02ybEA3Ebpl2wOFiMbvXCsaWTvl8/er33P99XAHz45H//L8/BJLfc6O5V3ObnNLqcpfyZTZ1SRkfiYXI1ABcTLJrOfHFSq77Fzbv9/7MqhGc/5fJwomkWydXGO0kVDQC7LRrH95yEmMq2Gq8HJ/24HowkbXudPj9+SB+t92cFxLN/5lPGHm+4tDGGg2hRnwuuPHhE9IDOulP2FZ9GZfsIHwKwMDuRh58Zl+/rj5Kfp2A8+7Owm1Y0kWdqi7eX2cXzm4CHflOHZufy0fXVxS7suMhV2fRlAlMPe+TzeSsc/euns1KQZ2d/usWcP3QFo4Qtac3bAJ3DCBytYPxgawSDrUGX9OUw9KUU/iZ/QqL4o1p7uTgrAzhaHHPk/vvnHMizs7Of/onL0v0d5keloJbV7kukdqDx/ujj0SEMNrCMV+SWcsi6eK1I7Eo9iRVHVfQuwn5AVDJq7EXh4Z8//eeM0cOff/r3v7wJ5Qx2a+TAhGKllR0p/o1s4ldm2/h889K3pKDElskMT2m/Fk8NJ26SykDSfHcndN02jqLJFWKP6cxYLApbDMZXT1bBcdkgDRflwYRX4NgKRLGTRZEcGFxJm6scV1UUzfWM6ERUNgao8g8nuBTI6PhPfipb/jUwRE4VbSNad5XeRS5g0yBUEBcO6RzJtnk1H+bkAQo31kRGAU+S9GPduUhduzAUpCAErTDDcWechTLMFjzUpN/V0aGUDBYQVp+yAGd6pdnGl7CnKeu+kpPqlBjK/qxMBEFX7oD5OlT7XLU4GMXZFkHemV1dDb5QtzaTS9WYDCWKoCZ5N6rFDca0lTidbDAVinvL1bZqrBR3GFkOt5GmWSlmAGXfLG4roQyFyP/C5bQv1wdnYtPjpMCTV4XA6xZuGSqKXP0ediNWNkRfMYRaFG+VQmQ6gCggRQXAr5oB5PxSjunH/CHyR6GMrfxUjZyZm1xdhrosqxr2JBsdm/9FcExC5K5Aw9ZpmB9FZXMfTn6lAJQCmpHpntkdyD6p1k9jowKRfRG7shDOT8Zp0tHI/TBp93CnMGMSIOpqF3dYvdtglxePl1xbrxuKNzFQiHzW4DwC1xFCDXayicXgQYXcId7mEyu+kgBzp4mHkPI06cpg2ScU27bjKmIujtSm/AWIEE+gvsvdSK5/mpwLBneXuqPtguYRplCxXmpimjCQ53RNzjrhB7ESXtmOonCwNLOiaAqpBQoRGC6O36zb0+ixBL0aP0C2CcV8vbQ5QOJnqABDx+WZB6NK4jlnVp9Iqtpr0hGGlkPk7iEJdnL6p7ZRBPH2ZfzA83i8PRJ3OEBdQtu27XLhNUwOPxIzZbs6G4VOJcjZSDhbZTDAvf7qg6UU4okmRUbFTtWUfwMAkdrVSwTUcXlSyjSxOBIJtqzupBZI5WLkzBUeuJAuLqf17D5Mi0iCKJu4OVdFOKGIFRFQ21bsh9G72q7VVD7q0tWoWAOXhRzIAm3DQyZFHXCjWOPUb+HHK2aH39fRE8LaEqQCmljqeIPqKs2hHk/Q9/xpogoOLnFlQgZZ/B7nx2usbUT6Trpr3OEWR1bAc3yZqqECajvSijEKqrZAbeoAM8pElc8uboHf22X6Wuwn9wvOm+6VTwHI9ZWSaOION/gOfJ2qOoYKaK/4MtMKp2ZcVm1ioiqMI6gSYfLgV6qRF0ldE4ii4qLcgYsGPwoDnikB4oKAiih4usHgqbW011VTPCCqHCJb2nBeBi0/0YSAZoKFAqp+GZtYYFbuW5rzBm2FmRjLdCnVMKqAIj9OexCwT38FBvgzWUIl7FuKDCTUOHa0WedBKQ6TxNbzL+XDLgU4YTJw20nEsoRUhrASHVsTUL/rdDyMPWZgpm7V0w4zISDtWJTTaF+NcFWJf0O+91Wu5QZeJnqlJKzCNIGmq9KXnnbbUQUU9UJ+UAVrp301BeFu/hQFz1Uw9lWlmsTF3fFlEFFFJMVvPnXFEm+qK1+OGaomEPUV55lp4GmJDN6OKAWGsF74aigmwi99lwrmyArOtB+BJq7amqNmIUNbMtDvadVjhnBa1fsptCM6qtrwHGF9qatqvNVLpI2n/IZ7ozV6WNu20DB+Vx9MaHDmEAt/u66td3eLdBRxVWv08eXMSgnxlWQOEDtCPi1bS52HvAdsal3/ERIrzlarBG351kzzhlqe60QT5wSi1ti8R1eqXs3vxRSfzWZ0eogI2VLUc6k7qnTJiLdmohovk+Me6kQm8kkzB8hdfz0JRf031+FJxmkARdGCKhVqHUoKTtUmThlQPHUlQm6+ZxwtY6iUEq9YuqeEfQSf2wcWVJUutkQRndq/jJFcxmjmFFkTq0ulZE/LgvNisrny4rFnIjVrm7CP4EtEjPNoOkBxsBCl1HFdxkiehGHWcaodzA0J7lQOgSeyjDt0s9vJxjrGPhWfZbCb1FIIdbOwQq5I7DmxXytVCKcglV2BOYPNe5Bx6sv3KuMOjS7IALW3sld2SF1p0RNx/XqMkWIUXlin8IJhE2upskygGFqjy7rtSAVD8ZH4Qj8NrPLdc/y9asiXzhowkluPWt3YHZagK3VZ4JQr2kfeILtKoyfX6fHgAIkRV7xH6ByKPyEZGw8tGCNtu+7OkmwcLOWJnDbTV7wIjFudNrzut1e/j5xQh4hWojg3tJEC8sfTq08sCdWlvgINLWTjIWVk3V0JLepnMHvRtx0nEypKdGUTgnwv9S5q3xe7roztEG3RzLpv2JKYmqphV/AnErebdyMiYiHd+ky0bQGjSEwB9vMuoglAT7ZokBBHxMVsq97UMjC7JpEBhAwtiIWsvVzasPMKJWUIQUrpP+veV1gHLbgwQXjIF79M6ymhxaQTlSYRDmG7AHJKAMJ+l65de4mL2r7+yvq2Sds3vG/FcdWqDE6sQrbPiDoiFi8DCHuW6I4Vu1aVA3wh5Cu+W5bZgPraeBpCeK8Tq8roGFE9f42Sy4PxuExIOX+TunoaTr8i+JTcMOEJhNwVvQqHIN/ZY0NFeSbEmbHqCVPbgYiNrbUiExkrmANcZwEkZChpDp/IbFTtTeAJU5Qyl1QpqXfqGmbbtqFkVroMuVQxEa4lp23l8GuILUTLcGV9bV/khPtuPkisR6FgYbmQkogOccXWzJ9gYKnzLVNTBi9/vOQQUZzw2KLBk+m+K2AhEVLm27qc2AcHEhLA4iYvVmTwbHnKqdHh3ueCixRjNr92WNsmU4BKSiXupmmv3+8nSUL+v5emcSx9kq7m+BpTtvrIU6TvjXwTgDRElNEWVxKOWw9kFthozVl6CUX7CA5BLUENXeYFOkr10D803aa3daAUaERskXHSaJpxK3v8hA7JMuLTaHLIEMZtBo+a1FjZyBPUeTfSDlJavVDMg0Sis8LK5YJZ5GYn5gBp5wfDOP32mGoW1wZ4emgYvKq5wevc97Uh9EFbkLCACGxn4lmUZILZALj69qcBRfwpHCJdDp2Se+MMHFEsDtfDWmRv+ccN9gZpGBGRVgEye04YttvsjE+Meda9IydYiOjFo2M/8CkhEa2i7HPgH1/tX3CI0mZSSWnTgBJn/yORJMHmSnAUntYEjYLjhttK9rUaIgFJxdUWxo2GfFT3h5Qy4ylHyYNT9vrlrZejo/PLq+tXBweHBwevrq8uz49GL5laeCSbWxSz6ThwM0f8C9DZRDg1sfCDgxn2do0OghxIK+3TgL/chrNRKBJUWVV/IF5nLmzTxPvSpFq2HVnD52+Om+OjNL70cxs36TbjXpLpnsKIslHI2mxgdK7oscgkZOkSN3/X7Emu00+p4syx73Aub3kcXQc5dYEyI05MeJLJKYyDjCKbYwnQ8CQApf+DygidPZeDI+sv6afdvD3NuGedj+eBL6OdV3mQgJM8OI7jLiFwUtTauvHy2FTtL9wU7sk2DZTA8zfn/Ib1raMykDAoVNi7QBh4XeMcgMeaTpt4Tw4vQJvzfJGspNEVmogyN76grn3S7e9kIkbm+LzpmwJMaHx0ZQV+Bcxm+vvCqgBJrGhweDma77ucS2lrdH5NYZbhzEZx0XCD/ONNq1xG6F0D4h4skncF2to9urwm3gpzVxgFgXV9Ptscj3c2Dws3Pbi6GI3nNO7atPX05ePRzhGh0ejlvN5ZvzXeZffcGe2O70EoV7SiFa1oRSta0YpWtKIVrWhFK1rRila0ohWtiNB/Aavj6EjUQTIdAAAAAElFTkSuQmCC;" vertex="1" parent="1">
          <mxGeometry x="521" y="1751" width="29" height="29" as="geometry" />
        </mxCell>
        <mxCell id="8N3fOwnKWGibA3i21ugf-43" style="edgeStyle=orthogonalEdgeStyle;rounded=0;orthogonalLoop=1;jettySize=auto;html=1;exitX=0.5;exitY=1;exitDx=0;exitDy=0;" edge="1" parent="1" source="8N3fOwnKWGibA3i21ugf-40" target="8N3fOwnKWGibA3i21ugf-36">
          <mxGeometry relative="1" as="geometry" />
        </mxCell>
        <mxCell id="8N3fOwnKWGibA3i21ugf-40" value="&lt;span style=&quot;font-size: 14px;&quot;&gt;Custom t5-small model &lt;/span&gt;&lt;font&gt;(fine-tuned for query optimization task)&lt;/font&gt;" style="rounded=0;whiteSpace=wrap;html=1;" vertex="1" parent="1">
          <mxGeometry x="415.78" y="1570" width="115" height="60" as="geometry" />
        </mxCell>
        <mxCell id="8N3fOwnKWGibA3i21ugf-42" style="edgeStyle=orthogonalEdgeStyle;rounded=0;orthogonalLoop=1;jettySize=auto;html=1;exitX=0.5;exitY=1;exitDx=0;exitDy=0;entryX=0;entryY=0.5;entryDx=0;entryDy=0;" edge="1" parent="1" source="8N3fOwnKWGibA3i21ugf-7" target="8N3fOwnKWGibA3i21ugf-36">
          <mxGeometry relative="1" as="geometry" />
        </mxCell>
        <mxCell id="8N3fOwnKWGibA3i21ugf-44" value="&amp;lt;&amp;lt; extends &amp;gt;&amp;gt;&amp;nbsp;" style="text;html=1;align=center;verticalAlign=middle;whiteSpace=wrap;rounded=0;" vertex="1" parent="1">
          <mxGeometry x="465" y="1648" width="120" height="30" as="geometry" />
        </mxCell>
      </root>
    </mxGraphModel>
  </diagram>
</mxfile>
